<?xml version="1.0" encoding="iso-8859-1"?>
<!-- Uploaded to: SVG Repo, www.svgrepo.com, Generator: SVG Repo Mixer Tools -->
<svg version="1.1" id="Layer_1" xmlns="http://www.w3.org/2000/svg" xmlns:xlink="http://www.w3.org/1999/xlink" 
	 viewBox="0 0 512.001 512.001" xml:space="preserve">
<path style="fill:#F0BB4B;" d="M276.605,132.942l-20.604,30.36l141.321,208.274l23.152,34.113H9.087l18.08,34.113h457.666
	L276.605,132.942z"/>
<path style="fill:#64C1DF;" d="M276.616,72.197L73.471,371.577h41.209l141.321-208.274l20.604-30.36l208.228,306.861l18.08-34.113
	L276.616,72.197z"/>
<path style="fill:#FFE789;" d="M397.321,371.577H73.471L276.616,72.197h-41.232L9.087,405.69h411.385L397.321,371.577z"/>
<polygon style="fill:#FFFFFF;" points="235.385,72.197 220.715,93.818 261.945,93.818 276.616,72.197 "/>
<path d="M280.748,64.4h-49.496L0,405.195l22.476,42.406h467.049l22.476-42.406L280.748,64.4z M276.605,119.055L110.547,363.779
	H88.185L276.616,86.084l217.21,320.101l-9.815,18.52L276.605,119.055z M239.516,79.995h22.386L58.757,379.374h280.414v-15.595
	H129.393l126.609-186.588l149.757,220.702H23.801L239.516,79.995z M22.044,413.487h413.142L265.425,163.306l11.18-16.476
	l193.514,285.178H31.86L22.044,413.487z"/>
<rect x="354.765" y="363.778" width="15.595" height="15.595"/>
</svg>